<?xml version="1.0" encoding="utf-8"?>
<!-- Generator: Adobe Illustrator 27.5.0, SVG Export Plug-In . SVG Version: 6.00 Build 0)  -->
<svg version="1.1" xmlns="http://www.w3.org/2000/svg" xmlns:xlink="http://www.w3.org/1999/xlink" x="0px" y="0px"
	 viewBox="0 0 750 500" style="enable-background:new 0 0 750 500;" xml:space="preserve">
<g id="BACKGROUND">
	<g>
		<rect y="0" style="fill:#2FC6C9;" width="750" height="499.813"/>
		<linearGradient id="SVGID_1_" gradientUnits="userSpaceOnUse" x1="375" y1="499.8131" x2="375" y2="-2.000001e-06">
			<stop  offset="0.5989" style="stop-color:#FFFFFF"/>
			<stop  offset="1" style="stop-color:#FFFFFF;stop-opacity:0"/>
		</linearGradient>
		<rect y="0" style="fill:url(#SVGID_1_);" width="750" height="499.813"/>
	</g>
</g>
<g id="OBJECTS">
	<g>
		<g>
			<g>
				
					<linearGradient id="SVGID_00000137131126784005390890000014646964919720982929_" gradientUnits="userSpaceOnUse" x1="96.469" y1="139.1734" x2="96.469" y2="140.3033">
					<stop  offset="0.6257" style="stop-color:#FFFFFF"/>
					<stop  offset="1" style="stop-color:#FFFFFF;stop-opacity:0.3"/>
				</linearGradient>
				<path style="fill:url(#SVGID_00000137131126784005390890000014646964919720982929_);" d="M114.301,139.173
					c-17.727,0.719-29.972,1.017-35.664,1.13C90.378,140.086,102.29,139.702,114.301,139.173z"/>
				
					<linearGradient id="SVGID_00000020377472622264096240000003438819317636764811_" gradientUnits="userSpaceOnUse" x1="432.1505" y1="0.3148" x2="432.1505" y2="139.1734">
					<stop  offset="0.6257" style="stop-color:#FFFFFF"/>
					<stop  offset="1" style="stop-color:#FFFFFF;stop-opacity:0.3"/>
				</linearGradient>
				<path style="fill:url(#SVGID_00000020377472622264096240000003438819317636764811_);" d="M617.535,55.954
					c0,0-59.012-22.13-96.926,29.201c0,0-22.837-20.767-48.049,10.419c0,0-188.855,36.146-358.259,43.6
					c83.646-3.395,289.26-16.195,503.59-63.394l-0.356,0.081c-87.764,25.779-240.553,54.112-240.026,54.084
					c125.486-6.689,273.563-61.728,273.617-61.748c33.028-7.809,66.123-16.46,98.875-26.045V0.687
					C750,0.687,661.792-7.769,617.535,55.954z"/>
				
					<linearGradient id="SVGID_00000106118805109102053610000016667506817156234675_" gradientUnits="userSpaceOnUse" x1="76.8185" y1="140.3033" x2="76.8185" y2="140.3659">
					<stop  offset="0.6257" style="stop-color:#FFFFFF"/>
					<stop  offset="1" style="stop-color:#FFFFFF;stop-opacity:0.3"/>
				</linearGradient>
				<path style="fill:url(#SVGID_00000106118805109102053610000016667506817156234675_);" d="M78.637,140.303
					c-1.214,0.022-2.427,0.044-3.637,0.063C75,140.366,76.249,140.351,78.637,140.303z"/>
				
					<linearGradient id="SVGID_00000114765388555296458080000005908886847367814073_" gradientUnits="userSpaceOnUse" x1="170.0425" y1="35.9326" x2="170.0425" y2="113.02">
					<stop  offset="0.6257" style="stop-color:#FFFFFF"/>
					<stop  offset="1" style="stop-color:#FFFFFF;stop-opacity:0.3"/>
				</linearGradient>
				<path style="fill:url(#SVGID_00000114765388555296458080000005908886847367814073_);" d="M340.085,103.126
					c0,0-128.085,6.597-203.085,2.81c0,0-39.618-53.447-68.833-13.802c0,0-11.167-82.807-68.167-47.392v61.194
					C0,105.936,193.142,123.61,340.085,103.126z"/>
				
					<linearGradient id="SVGID_00000173119444854278909430000004827205520730230440_" gradientUnits="userSpaceOnUse" x1="557.7233" y1="129.9455" x2="557.7233" y2="233.9894">
					<stop  offset="0.6257" style="stop-color:#FFFFFF"/>
					<stop  offset="1" style="stop-color:#FFFFFF;stop-opacity:0.3"/>
				</linearGradient>
				<path style="fill:url(#SVGID_00000173119444854278909430000004827205520730230440_);" d="M607.221,145.555
					c0,0-52.003-42.407-86.612,12.573c0,0-34.875-5.753-39.416,32.219c0,0-21.36,3.512-22.276,28.13c0,0-14.024,10.404-41.47,15.512
					c0,0,177.553-9.07,280.553-67.956c0,0-26.333,9.693-47.667,14.389C650.333,180.422,659.442,137.981,607.221,145.555z"/>
				
					<linearGradient id="SVGID_00000036944371159080941690000013646873023716272271_" gradientUnits="userSpaceOnUse" x1="664.1699" y1="150.2974" x2="664.1699" y2="217.5081">
					<stop  offset="0.6257" style="stop-color:#FFFFFF"/>
					<stop  offset="1" style="stop-color:#FFFFFF;stop-opacity:0.3"/>
				</linearGradient>
				<path style="fill:url(#SVGID_00000036944371159080941690000013646873023716272271_);" d="M750,173.599v-23.302
					c-71,47.149-171.66,67.211-171.66,67.211C650.018,210.912,750,173.599,750,173.599z"/>
				
					<linearGradient id="SVGID_00000144313296902987003530000008022403065798275215_" gradientUnits="userSpaceOnUse" x1="348.4363" y1="79.1574" x2="348.4363" y2="99.9493">
					<stop  offset="0.6257" style="stop-color:#FFFFFF"/>
					<stop  offset="1" style="stop-color:#FFFFFF;stop-opacity:0.3"/>
				</linearGradient>
				<path style="fill:url(#SVGID_00000144313296902987003530000008022403065798275215_);" d="M464.123,79.157
					c0,0-73.244,11.496-108.934,12.995c0,0-18.689-14.494-44.189,4.498c0,0-72.5,1.342-78.25,2.42
					C232.75,99.071,352.696,106.321,464.123,79.157z"/>
				
					<linearGradient id="SVGID_00000168096888539219697260000003755995667916882589_" gradientUnits="userSpaceOnUse" x1="453.6146" y1="-0.005" x2="453.6146" y2="36.1907">
					<stop  offset="0.6257" style="stop-color:#FFFFFF"/>
					<stop  offset="1" style="stop-color:#FFFFFF;stop-opacity:0.3"/>
				</linearGradient>
				<path style="fill:url(#SVGID_00000168096888539219697260000003755995667916882589_);" d="M589.563,0L434.75,0
					c0,0-28.625-1-46.794,25.178c0,0-23.622,7.515-70.289,10.755C317.667,35.932,475.367,41.585,589.563,0z"/>
				
					<linearGradient id="SVGID_00000144307670948118598280000016955972916795606456_" gradientUnits="userSpaceOnUse" x1="84.1471" y1="162.6727" x2="84.1471" y2="241.7002">
					<stop  offset="0.6257" style="stop-color:#FFFFFF"/>
					<stop  offset="1" style="stop-color:#FFFFFF;stop-opacity:0.3"/>
				</linearGradient>
				<path style="fill:url(#SVGID_00000144307670948118598280000016955972916795606456_);" d="M0,162.673v78.215
					c46,6.789,55.315-31.217,55.315-31.217C94.63,196.239,75,176.236,75,176.236c34.618-1.842,67.88-4.987,93.294-7.785
					C94.293,172.92,0,162.673,0,162.673z"/>
				
					<linearGradient id="SVGID_00000046340053175418110880000002446167860661505168_" gradientUnits="userSpaceOnUse" x1="191.6471" y1="162.6727" x2="191.6471" y2="168.4508">
					<stop  offset="0.6257" style="stop-color:#FFFFFF"/>
					<stop  offset="1" style="stop-color:#FFFFFF;stop-opacity:0.3"/>
				</linearGradient>
				<path style="fill:url(#SVGID_00000046340053175418110880000002446167860661505168_);" d="M168.294,168.451
					c17.129-1.034,33.172-2.857,46.706-5.778C215,162.673,196.472,165.349,168.294,168.451z"/>
			</g>
			<g>
				<polygon style="fill:#FBEFE2;" points="0,297.564 191,209.797 210,215.114 327,141.134 376.716,158.128 383.903,151.234 
					495.768,196.207 517.712,192.829 750,309.841 750,500 0,500 				"/>
				<g>
					<polygon style="fill:#C6DCD6;" points="327,141.134 340.085,166.033 348.177,184.08 336.929,206.064 377.509,184.08 
						385.052,190.347 353.749,234.581 344.627,275.25 347.03,288.088 382.06,264.158 387.908,290.699 371.701,308.842 413.26,500 
						750,500 750,298.965 517.712,192.829 495.768,196.207 383.903,151.234 376.716,158.128 					"/>
					<polygon style="fill:#C6DCD6;" points="191,209.797 203,221.091 210,240.969 203,250.346 213.333,245.658 228,283.729 
						245,271.932 247,283.729 232.75,314.343 319.934,500 252.5,248.319 242.685,214.678 264.865,180.422 210,215.114 					"/>
				</g>
				
					<linearGradient id="SVGID_00000040575763705783368230000001717809175394245029_" gradientUnits="userSpaceOnUse" x1="375" y1="500" x2="375" y2="141.1342">
					<stop  offset="0.1016" style="stop-color:#FFFFFF"/>
					<stop  offset="0.8342" style="stop-color:#FFFFFF;stop-opacity:0"/>
				</linearGradient>
				<polygon style="fill:url(#SVGID_00000040575763705783368230000001717809175394245029_);" points="0,297.564 191,209.797 
					210,215.114 327,141.134 376.716,158.128 383.903,151.234 495.768,196.207 517.712,192.829 750,309.841 750,500 0,500 				"/>
				<g>
					<polygon style="fill:#B0C8C1;" points="376.716,158.128 392.35,195.36 396.333,191.899 393.266,199.339 430.822,312.25 
						399.667,190.347 383.903,151.234 					"/>
					<polygon style="fill:#B0C8C1;" points="348.177,184.08 377.509,184.08 336.929,206.064 					"/>
					<polygon style="fill:#B0C8C1;" points="495.768,196.207 514,331.431 517.712,192.829 					"/>
				</g>
			</g>
			<g>
				<g>
					<path style="fill:#555E21;" d="M119.62,325.919l-1.212-5.772l-8.76-3.441l8.204,0.795l-2.761-13.141
						c-1.935,0.91-4.769,2.2-4.827,1.969c-0.059-0.237,2.598-2.71,4.338-4.298l-5.364-25.532l-2.229,2.831l1.795-4.898
						l-3.027-14.407l-2.027,9.648l1.796,5.438l-0.007,0.427l-2.434-2.796l-1.845,8.78l-2.419-11.513l-2.935,3.727l2.363-6.448
						l-3.985-18.969l-2.669,12.703l2.364,7.16l-0.009,0.563l-3.204-3.681l-3.858,18.364l6.68,2.351l-6.563,0.421l-6.412-30.519
						l-2.935,3.727l2.363-6.448l-3.985-18.969l-2.669,12.703l2.364,7.16l-0.009,0.563l-3.204-3.681l-3.858,18.364l6.68,2.351
						l-7.272,0.466l-0.711,3.386l5.196,3.586l-4.626-0.723l4.612,2.908l-6.312-0.394l-2.008,9.561l9.037,2.285l0.545,4.393
						l-8.538-3.583l5.872,4.971l-7.713-4.271l-2.502,11.911c2.275,3.257,8.423,11.755,11.274,12.683
						c-1.416-0.376-8.497-2.365-12.773-5.548l-1.611,7.669h13.511h3.145h1.57h1.799h1.645c2.489,3.533,8.216,11.322,10.94,12.208
						c-1.416-0.376-8.496-2.365-12.773-5.548l-1.611,7.669h13.511h3.145h1.57h1.799h16.427l-1.596-7.599l-3.97-1.559h0.197H119.62z
						 M104.08,307.819l-1.841-0.773c0.486-0.47,1.02-0.974,1.561-1.48L104.08,307.819z M100.993,308.285
						c0.052-0.054,0.11-0.113,0.166-0.17l0.771,0.652c-0.013,0.005-0.025,0.01-0.038,0.015L100.993,308.285z M105.249,288.475
						l-2.494,0.16l-0.235-1.121L105.249,288.475z M84.519,309.94l-2.178-1.206L85.092,309l2.567,2.173L84.519,309.94z
						 M88.937,295.287l-0.255-1.213l2.107,1.329L88.937,295.287z M87.18,309.203l4.674,0.453l0.197,1.592L87.18,309.203z
						 M91.706,308.468l-0.347-1.651l0.146,0.037L91.706,308.468z M86.581,290.303l4.222,2.914l-2.379-0.372l-0.101-0.482
						c-0.239,0.113-0.491,0.23-0.747,0.35l-1.398-0.218l0.792,0.5c-2.339,1.079-4.939,2.215-5.002,1.961
						C81.901,294.69,84.417,292.299,86.581,290.303z M81.609,308.663l-0.026,0.124l-0.426-0.168L81.609,308.663z M99.383,322.948
						l1.756,0.17c0.654,0.599,1.248,1.037,1.72,1.19c-0.011-0.003-0.03-0.008-0.043-0.012L99.383,322.948z"/>
					<path style="fill:#555E21;" d="M164.701,342.473h1.94h1.192h1.366h12.477l-1.212-5.772l-8.76-3.441l8.204,0.795l-2.761-13.141
						c-1.935,0.91-4.769,2.2-4.827,1.969c-0.059-0.237,2.598-2.71,4.338-4.298l-5.364-25.532l-2.229,2.831l1.795-4.898
						l-3.027-14.407l-2.027,9.648l1.796,5.438l-0.007,0.427l-2.434-2.796l-2.93,13.948l5.074,1.786l-4.9,0.314l-0.874-4.162
						l-2.229,2.83l1.795-4.898l-3.027-14.407l-2.027,9.648l1.796,5.438l-0.007,0.427l-2.434-2.796l-2.93,13.948l5.074,1.786
						l-5.523,0.354l-0.54,2.572l3.946,2.724l-3.513-0.549l3.503,2.209l-3.133-0.196l-0.514-2.445c-1.935,0.91-4.769,2.2-4.827,1.969
						c-0.059-0.237,2.598-2.71,4.338-4.298l-5.364-25.532l-2.229,2.831l1.795-4.898l-3.027-14.407l-2.027,9.648l1.796,5.438
						l-0.007,0.427l-2.434-2.796l-2.93,13.948l5.074,1.786l-5.523,0.354l-0.54,2.572l3.946,2.724l-3.513-0.549l3.503,2.209
						l-4.794-0.299l-1.526,7.262l6.864,1.736l0.414,3.337l-6.485-2.722l4.46,3.775l-5.859-3.244l-1.9,9.046
						c1.728,2.474,6.397,8.928,8.563,9.633c-1.076-0.286-6.453-1.796-9.701-4.214l-1.224,5.824h10.262h2.389h1.192h1.366h2.788
						c1.742,2.493,6.385,8.903,8.543,9.605c-1.076-0.286-6.453-1.796-9.701-4.214l-1.224,5.824h10.262h2.389h1.192h1.366h12.477
						l-1.212-5.772L164.701,342.473z M152.915,332.762l-4.269-2.364l2.227,0.216l2.967,2.512L152.915,332.762z M165.75,321.26
						l-0.048-0.229l0.02,0.005L165.75,321.26z M163.676,311.392l1.501,0.946l-1.32-0.082L163.676,311.392z M165.188,310.678
						l-1.718-0.268l-0.225-1.073L165.188,310.678z M155.959,329.165l0.414,3.337l-4.197-1.762l2.353,0.228l-0.48-2.286
						L155.959,329.165z M148.475,330.381l-0.124,0.588l-2.026-0.796L148.475,330.381z"/>
					<path style="fill:#555E21;" d="M203.964,360.423l-8.76-3.441l8.204,0.795l-2.761-13.141c-1.935,0.91-4.769,2.2-4.827,1.969
						c-0.059-0.237,2.598-2.71,4.338-4.298l-5.364-25.532l-2.229,2.831l1.795-4.898l-3.027-14.407l-2.027,9.648l1.796,5.438
						l-0.007,0.427l-2.434-2.796l-2.93,13.948l5.074,1.786l-5.523,0.354l-0.54,2.572l3.946,2.724l-3.513-0.549l3.503,2.209
						l-4.794-0.299l-1.525,7.262l6.864,1.736l0.414,3.337l-6.485-2.722l4.46,3.775l-5.859-3.244l-1.9,9.046
						c1.728,2.474,6.397,8.928,8.563,9.633c-1.076-0.286-6.453-1.796-9.701-4.214l-1.224,5.824h10.262h2.389h1.192h1.366h12.477
						L203.964,360.423z"/>
					<path style="fill:#555E21;" d="M259.371,395.469l8.204,0.795l-2.761-13.141c-1.935,0.91-4.769,2.2-4.827,1.969
						c-0.059-0.237,2.598-2.71,4.337-4.299l-5.364-25.532l-2.229,2.831l1.795-4.898l-3.027-14.407l-2.027,9.648l1.796,5.438
						l-0.007,0.427l-2.434-2.796l-0.311,1.479l-2.057-9.791l-2.229,2.831l1.795-4.898L247,326.718l-2.027,9.648l1.796,5.438
						l-0.007,0.427l-2.434-2.796l-2.93,13.948l5.074,1.786l-5.523,0.354l-0.54,2.572l3.946,2.724l-3.513-0.549l3.503,2.209
						l-4.794-0.299l-1.525,7.261l6.864,1.736l0.414,3.337l-6.485-2.722l4.46,3.775l-5.858-3.244l-0.046,0.217l-1.199-5.71
						l-8.76-3.441l8.204,0.795l-2.761-13.141c-1.935,0.91-4.769,2.2-4.827,1.969c-0.059-0.237,2.598-2.71,4.338-4.299l-5.364-25.532
						l-2.229,2.831l1.795-4.898l-3.027-14.407l-2.027,9.648l1.796,5.438l-0.007,0.427l-2.434-2.796l-1.527,7.268l-2.502-11.909
						l-2.027,9.648l1.796,5.438l-0.007,0.427l-2.434-2.796l-2.93,13.948l4.659,1.64l-0.037,0.175l-5.072,0.325l-0.54,2.572
						l3.946,2.724l-3.513-0.549l3.503,2.209l-4.794-0.299l-1.526,7.262l4.751,1.201l-0.543,2.583l-3.416-1.434l4.46,3.776
						l-5.859-3.244l-1.9,9.046c1.728,2.474,6.397,8.928,8.563,9.633c-1.076-0.286-6.453-1.796-9.701-4.214L203,380.679h10.262h2.389
						h1.193h1.366h12.477l-1.212-5.772l-5.868-2.305h1.303h12.451l-1.842,8.767c1.728,2.474,6.397,8.929,8.563,9.633
						c-1.076-0.286-6.453-1.796-9.701-4.214l-1.224,5.824h10.262h0.773l-0.173,0.825c1.728,2.474,6.397,8.928,8.563,9.633
						c-1.076-0.286-6.453-1.796-9.701-4.214l-1.224,5.824h10.262h2.389h1.192h1.366h12.477l-1.212-5.772L259.371,395.469z
						 M218.292,333.496l0.195,0.069l-0.412,0.524L218.292,333.496z M221.149,335.278l-0.176-0.839l2.043,0.719L221.149,335.278z
						 M252.601,372.712c-0.087,0.035-0.169,0.066-0.247,0.097l-0.663-0.104c0.09-0.106,0.208-0.236,0.347-0.382L252.601,372.712z
						 M250.871,383.401l2.567,0.249l0.099,0.799L250.871,383.401z"/>
					<path style="fill:#555E21;" d="M497.419,351.368c0.288,0.384,0.587,0.775,0.896,1.172c-1.574,0.714-3.1,1.358-3.143,1.189
						C495.135,353.579,496.195,352.524,497.419,351.368z M501.148,357.229l-0.362-1.723c1.175,1.291,2.281,2.296,3.061,2.549
						C503.442,357.947,502.428,357.666,501.148,357.229z"/>
					<path style="fill:#555E21;" d="M556.214,324.035l8.204,0.795l-2.761-13.142c-1.935,0.91-4.769,2.2-4.827,1.969
						c-0.059-0.237,2.598-2.71,4.338-4.299l-5.364-25.532l-2.229,2.831l1.795-4.898l-3.027-14.407L550.316,277l1.795,5.438
						l-0.006,0.427l-2.434-2.796l-2.93,13.948l5.074,1.786l-5.523,0.354l-0.54,2.572l3.946,2.724l-3.513-0.549l3.503,2.209
						l-4.794-0.299l-1.526,7.262l6.864,1.736l0.414,3.337l-6.485-2.722l4.46,3.776l-5.686-3.149l-0.974-4.636l-2.229,2.831
						l1.795-4.898l-3.027-14.407l-2.027,9.648l1.796,5.438l-0.007,0.427l-2.434-2.796l-2.93,13.948l5.074,1.786l-5.523,0.354
						l-0.54,2.572l3.946,2.724l-3.513-0.549l3.503,2.209l-4.794-0.299l-1.526,7.262l6.864,1.736l0.414,3.337l-6.485-2.722
						l4.46,3.775l-5.858-3.244l-1.9,9.046c1.728,2.474,6.397,8.928,8.563,9.633c-1.076-0.286-6.453-1.796-9.701-4.214l-1.224,5.824
						h10.262h2.389h1.192h1.366h12.477l-1.212-5.772l-8.76-3.441l8.204,0.795l-2.761-13.141c-1.935,0.91-4.769,2.2-4.827,1.969
						c-0.059-0.237,2.598-2.71,4.338-4.299l-0.147-0.701h1.585h2.389h1.193h1.366h12.477l-1.212-5.771L556.214,324.035z
						 M546.661,330.788l-0.375-1.785c1.205,1.333,2.342,2.374,3.139,2.634C549.013,331.527,547.971,331.237,546.661,330.788z"/>
					<path style="fill:#555E21;" d="M624.908,295.442l-8.76-3.441l8.204,0.795l-2.761-13.141c-1.935,0.91-4.769,2.2-4.827,1.969
						c-0.059-0.237,2.598-2.71,4.338-4.299l-5.364-25.532l-2.229,2.831l1.795-4.898l-3.027-14.407l-2.027,9.648l1.796,5.438
						l-0.007,0.427l-2.434-2.796l-2.93,13.948l5.074,1.786l-5.524,0.354l-0.54,2.572l3.946,2.724l-3.513-0.549l3.503,2.209
						l-4.794-0.299l-1.526,7.262l6.864,1.736l0.414,3.337l-6.485-2.722l4.46,3.776l-5.859-3.244l-1.9,9.046
						c1.728,2.474,6.397,8.928,8.563,9.633c-1.076-0.286-6.453-1.796-9.701-4.214l-1.224,5.824h10.262h2.389h1.192h1.366h12.477
						L624.908,295.442z"/>
				</g>
				<g>
					<path style="fill:#909A56;" d="M0,321.139c0,0,70-36.134,176-1.11s151.949,112.521,260.974,60.778
						C546,329.064,613,250.767,750,279.42V500H0V321.139z"/>
					<path style="fill:#878D4C;" d="M436.974,380.807c-61.027,28.963-102.292,17.43-145.387-4.479l0,0
						c0,0,44.413,26.245,26.08,28.142c-18.333,1.898-120.962,6.836-101,10.767l-48.833,15.12L491.5,500H750V279.42
						C613,250.767,546,329.064,436.974,380.807z"/>
					<path style="fill:#A0A765;" d="M101.5,385.41c-21.024-20.625,41,12.128,80.964-1.866c39.964-13.995-0.464-30.489-26.964-53.825
						s129.408,43.144,129.408,43.144l-0.006-0.004C253.049,356.03,219.607,334.438,176,320.03c-106-35.025-176,1.11-176,1.11v91.972
						C43.214,414.094,118.734,402.317,101.5,385.41z"/>
					<path style="fill:#A0A765;" d="M497.673,347.977c38.706-18.697,109.143-36.729,85.198-18.122
						C559.961,347.657,696.038,349.25,750,349.194V279.42C640.133,256.442,575.281,302.246,497.673,347.977z"/>
					<path style="fill:#BBBB80;" d="M63.667,321.538c-10.563,10.8,45.667,19.189,57.667,16.44c12-2.749-27.667-16.911,10-20.324
						C169,314.24,262.46,360.58,262.46,360.58c-0.002-0.002-0.004-0.004-0.006-0.007c-25.409-14.142-52.925-29.466-86.454-40.544
						c-65.35-21.593-117.006-16.139-147.023-8.781C51.504,309.188,70.396,314.657,63.667,321.538z"/>
				</g>
			</g>
			<g>
				<g>
					<path style="fill:#20262E;" d="M223.543,417.031c0,0-17.338-16.617-37.543-6.497c0,0-27.952-36.422-63.476-15.462
						c0,0-38.024-46.262-74.524-17.899c0,0-19-44.278-48-29.2v68.988L223.543,417.031z"/>
					
						<linearGradient id="SVGID_00000093154134960387478470000011231015410601072828_" gradientUnits="userSpaceOnUse" x1="111.7717" y1="417.031" x2="111.7717" y2="344.8413">
						<stop  offset="0" style="stop-color:#F1F1CB;stop-opacity:0.3"/>
						<stop  offset="0.4973" style="stop-color:#20262E;stop-opacity:0"/>
					</linearGradient>
					<path style="fill:url(#SVGID_00000093154134960387478470000011231015410601072828_);" d="M223.543,417.031
						c0,0-17.338-16.617-37.543-6.497c0,0-27.952-36.422-63.476-15.462c0,0-38.024-46.262-74.524-17.899c0,0-19-44.278-48-29.2
						v68.988L223.543,417.031z"/>
				</g>
				<g>
					<path style="fill:#424D16;" d="M258.667,416.698c0,0,19.383-14.307,43.667-1.461c0,0,30.929-24.054,65.653,8.775
						c0,0,10.347-25.899,33.347-17.273c0,0,15.833-30.164,79-9.185c0,0,14.167-44.995,46.417-36.917
						c0,0,48.906-49.182,107.078,18.434c0,0,68.172-32.006,79.505,26.468c0,0,19.667-19.497,36.667,1.495v31.322l-404.15,44.34
						L258.667,416.698z"/>
					<path style="fill:#343A10;" d="M252.5,473.066c0,0,31.368-44.872,67.434-28.462c0,0,11.852-32.405,68.709-2.749
						c0,0,8.485-35.314,44.671-23.322c0,0,45.686-34.99,90.186,10.993c0,0,28.046,2.022,37.273,51.492L252.5,473.066z"/>
				</g>
				<g>
					<path style="fill:#323A11;" d="M750,157.811l-1.829-13.621l-12.029,9.197l-0.041-1.539l10.824-16.929l-1.231-9.164
						l-0.619-4.607l-1.756-13.08l0.219-0.106l-1.84-11.96l-2.82-20.998l-4.791,0.847l-0.016-0.588l4.489-2.621l-5.678-42.285
						l-8.4,57.539l1.78,2.506l-2.297,1.039l-4.287,29.369l9.726,0.056l-4.862,4.134l-4.039-2.17l3.063,2.999l-5.275,4.485
						l-2.342,16.046l-3.483,23.86l13.943,30.686l-0.032,0.831l-14.909-24.685l-2.06,14.11l-0.822-5.865l-13.46,10.414l-0.056-1.729
						l12.056-19.096l-1.442-10.292l-0.725-5.173l-2.058-14.689l0.246-0.121l-2.145-13.43l-3.304-23.581l-5.379,0.983l-0.021-0.661
						l5.029-2.975l-6.654-47.487l-9.069,64.722l2.016,2.805l-2.575,1.182l-4.629,33.035h10.931l-5.438,4.677l-4.553-2.413
						l3.462,3.351l-5.9,5.075l-2.529,18.049l-3.761,26.838l15.869,34.397l-0.03,0.934l-16.915-27.647l-4.562,32.558l-0.121-0.204
						l-0.404,2.883l0.121,0.206l-1.727,12.326l-0.129-0.153l-1.16,8.281l-5.879-41.957l-9.852,7.623l-0.041-1.266l8.825-13.978
						l-1.056-7.534l-0.531-3.787l-1.507-10.752l0.18-0.088l-1.57-9.83l-2.419-17.261l-3.937,0.72l-0.016-0.484l3.681-2.178
						l-4.871-34.76l-6.638,47.375l1.476,2.053l-1.885,0.865l-3.388,24.181h8.001l-3.981,3.424l-3.333-1.766l2.534,2.453
						l-4.319,3.715l-1.851,13.211l-2.753,19.645l11.615,25.178l-0.022,0.684l-12.381-20.237l-3.339,23.831l-0.089-0.15l-0.296,2.11
						l0.089,0.151l-1.264,9.022l-0.094-0.112l-1.688,12.046l0.094,0.113l-0.347,2.474l7.054,20.046l-8.369-10.66l-0.896,6.398
						l-0.095-0.106l-0.689,4.919l0.097,0.088l-0.632,4.511l18.288,30.394l-19.352-22.805l-4.906,35.016
						c0,0,4.271,17.916,24.986,21.833l-1.597,49.573h9.97h9.97l-1.597-49.573c2.577-0.487,4.899-1.192,6.99-2.051
						c5.174,5.108,12.641,9.832,23.294,11.847l-2.182,67.725h13.621h13.621l-2.182-67.725c6.688-1.265,12.109-3.604,16.507-6.43
						l-0.014,0.366l12.119,0.07l12.119,0.069l-1.595-60.269c3.236-0.593,6.139-1.471,8.75-2.546v-53.676l-7.256,4.103l7.256-7.157
						v-34.799l-1.287,1.223l-0.759-11.503L750,240.77v-3.335l-2.309,0.546l-1.369-20.757l3.679,1.762V157.811z M662.429,347.379
						l2.875-2.868l2.919,4.852l-2.765,1.585L662.429,347.379z M653.976,316.848l0.221-0.132l-0.153,1.089L653.976,316.848z
						 M654.079,318.291l0.042,0.038l-0.026,0.184L654.079,318.291z M661.9,300.921l5.818,16.534l-4.713-6.003l0.381-0.228
						l-0.47,0.114l-6.631-8.446l-1.225,8.74l-0.13-0.145l-0.259,1.848l-0.93,0.225l-1.224-17.07L661.9,300.921z M670.591,356.998
						l-0.676-4.822l8.327,13.839L670.591,356.998z M711.104,293.926l1.97-1.177l4.659,7.844l-0.574,0.552L711.104,293.926z
						 M708.654,290.708l-0.441-6.143l3.245,5.464L708.654,290.708z M713.373,344.045c1.475,0.572,3.037,1.083,4.7,1.517
						l-14.615,8.376L713.373,344.045z"/>
					
						<linearGradient id="SVGID_00000116197629712978325560000002060511125752113575_" gradientUnits="userSpaceOnUse" x1="678.6105" y1="480.2485" x2="678.6105" y2="30.3568">
						<stop  offset="0.107" style="stop-color:#FFFFFF;stop-opacity:0.7"/>
						<stop  offset="0.6043" style="stop-color:#323A11;stop-opacity:0"/>
					</linearGradient>
					<path style="fill:url(#SVGID_00000116197629712978325560000002060511125752113575_);" d="M750,157.811l-1.829-13.621
						l-12.029,9.197l-0.041-1.539l10.824-16.929l-1.231-9.164l-0.619-4.607l-1.756-13.08l0.219-0.106l-1.84-11.96l-2.82-20.998
						l-4.791,0.847l-0.016-0.588l4.489-2.621l-5.678-42.285l-8.4,57.539l1.78,2.506l-2.297,1.039l-4.287,29.369l9.726,0.056
						l-4.862,4.134l-4.039-2.17l3.063,2.999l-5.275,4.485l-2.342,16.046l-3.483,23.86l13.943,30.686l-0.032,0.831l-14.909-24.685
						l-2.06,14.11l-0.822-5.865l-13.46,10.414l-0.056-1.729l12.056-19.096l-1.442-10.292l-0.725-5.173l-2.058-14.689l0.246-0.121
						l-2.145-13.43l-3.304-23.581l-5.379,0.983l-0.021-0.661l5.029-2.975l-6.654-47.487l-9.069,64.722l2.016,2.805l-2.575,1.182
						l-4.629,33.035h10.931l-5.438,4.677l-4.553-2.413l3.462,3.351l-5.9,5.075l-2.529,18.049l-3.761,26.838l15.869,34.397
						l-0.03,0.934l-16.915-27.647l-4.562,32.558l-0.121-0.204l-0.404,2.883l0.121,0.206l-1.727,12.326l-0.129-0.153l-1.16,8.281
						l-5.879-41.957l-9.852,7.623l-0.041-1.266l8.825-13.978l-1.056-7.534l-0.531-3.787l-1.507-10.752l0.18-0.088l-1.57-9.83
						l-2.419-17.261l-3.937,0.72l-0.016-0.484l3.681-2.178l-4.871-34.76l-6.638,47.375l1.476,2.053l-1.885,0.865l-3.388,24.181
						h8.001l-3.981,3.424l-3.333-1.766l2.534,2.453l-4.319,3.715l-1.851,13.211l-2.753,19.645l11.615,25.178l-0.022,0.684
						l-12.381-20.237l-3.339,23.831l-0.089-0.15l-0.296,2.11l0.089,0.151l-1.264,9.022l-0.094-0.112l-1.688,12.046l0.094,0.113
						l-0.347,2.474l7.054,20.046l-8.369-10.66l-0.896,6.398l-0.095-0.106l-0.689,4.919l0.097,0.088l-0.632,4.511l18.288,30.394
						l-19.352-22.805l-4.906,35.016c0,0,4.271,17.916,24.986,21.833l-1.597,49.573h9.97h9.97l-1.597-49.573
						c2.577-0.487,4.899-1.192,6.99-2.051c5.174,5.108,12.641,9.832,23.294,11.847l-2.182,67.725h13.621h13.621l-2.182-67.725
						c6.688-1.265,12.109-3.604,16.507-6.43l-0.014,0.366l12.119,0.07l12.119,0.069l-1.595-60.269
						c3.236-0.593,6.139-1.471,8.75-2.546v-53.676l-7.256,4.103l7.256-7.157v-34.799l-1.287,1.223l-0.759-11.503L750,240.77v-3.335
						l-2.309,0.546l-1.369-20.757l3.679,1.762V157.811z M662.429,347.379l2.875-2.868l2.919,4.852l-2.765,1.585L662.429,347.379z
						 M653.976,316.848l0.221-0.132l-0.153,1.089L653.976,316.848z M654.079,318.291l0.042,0.038l-0.026,0.184L654.079,318.291z
						 M661.9,300.921l5.818,16.534l-4.713-6.003l0.381-0.228l-0.47,0.114l-6.631-8.446l-1.225,8.74l-0.13-0.145l-0.259,1.848
						l-0.93,0.225l-1.224-17.07L661.9,300.921z M670.591,356.998l-0.676-4.822l8.327,13.839L670.591,356.998z M711.104,293.926
						l1.97-1.177l4.659,7.844l-0.574,0.552L711.104,293.926z M708.654,290.708l-0.441-6.143l3.245,5.464L708.654,290.708z
						 M713.373,344.045c1.475,0.572,3.037,1.083,4.7,1.517l-14.615,8.376L713.373,344.045z"/>
				</g>
				<g>
					<g>
						<g>
							<polygon style="fill:#7C4737;" points="361.291,317.831 366.504,312.784 361.218,315.586 359.321,256.684 355.224,383.853 
								342.516,380.774 355.081,388.283 351.974,484.731 359.321,484.731 366.667,484.731 							"/>
							<polygon style="fill:#8B5743;" points="359.321,484.731 359.321,256.684 355.224,383.853 342.516,380.774 355.081,388.283 
								351.974,484.731 							"/>
						</g>
						<g>
							<path style="fill:#606418;" d="M359.321,284.421l-3.79-0.693l-5.086,36.293l7.683,12.169l-8.47-6.553l-6.706,47.854
								l7.573-3.575l-1.576,21.97l-7.557-7.265l-2.578,18.397l13.611,13.581l-14.361-8.23l-3.327,23.742
								c0,0,3.952,16.651,24.582,16.651c20.63,0,24.582-16.651,24.582-16.651l-3.616-25.803l-14.26,16.805l13.476-22.397
								l-1.632-11.65l-6.167,7.855l5.198-14.772l-5.11-36.466l-10.134,16.564l9.554-20.709l-3.393-24.211l-6.704-5.766h5.896
								l-2.497-17.819l-1.389-0.638l1.088-1.513l-4.892-34.91l-3.589,25.614l0,0L359.321,284.421z"/>
							<path style="fill:#7A7C23;" d="M355.531,283.729l-5.086,36.293l7.683,12.169l-8.47-6.553l-6.706,47.854l7.573-3.575
								l-1.576,21.97l-7.557-7.265l-2.578,18.397l13.611,13.581l-14.361-8.23l-3.327,23.742c0,0,3.952,16.651,24.582,16.651V284.421
								L355.531,283.729z"/>
							<g>
								<polygon style="fill:#83832C;" points="348.592,333.247 359.321,337.924 359.321,342.708 348.177,336.212 								"/>
								<polygon style="fill:#83832C;" points="346.181,350.453 359.321,358.484 359.321,363.777 345.863,352.724 								"/>
								<polygon style="fill:#83832C;" points="344.955,359.205 359.321,363.777 359.321,367.746 344.627,361.543 								"/>
								<polygon style="fill:#83832C;" points="351.058,315.652 359.321,323.234 359.321,296.907 353.749,296.448 352.592,303.692 
									358.4,306.542 352.373,306.263 358.535,311.834 351.614,311.68 								"/>
								<polygon style="fill:#83832C;" points="340.375,391.888 359.321,404.387 359.321,408.594 340.085,393.958 								"/>
								<polygon style="fill:#83832C;" points="337.44,412.832 359.321,428.95 359.321,435.193 336.929,416.481 								"/>
							</g>
							<g>
								<polygon style="fill:#70701E;" points="359.256,388.471 374.318,363.136 374.536,364.691 359.256,390.656 								"/>
								<polygon style="fill:#70701E;" points="359.256,390.656 375.472,371.368 376.716,380.245 359.256,401.281 								"/>
								<polygon style="fill:#70701E;" points="378.602,393.704 359.256,415.237 379.11,397.329 								"/>
								<polygon style="fill:#70701E;" points="367.994,321.538 359.321,331.512 359.321,339.655 369.183,327.065 362.404,331.716 
																	"/>
								<polygon style="fill:#70701E;" points="369.868,331.958 359.321,347.39 359.321,352.724 								"/>
							</g>
						</g>
					</g>
					<g>
						<g>
							<polygon style="fill:#7C4737;" points="439.18,313.95 443.296,309.966 439.123,312.177 437.625,265.676 434.391,366.072 
								424.358,363.641 434.278,369.569 431.825,445.712 437.625,445.712 443.425,445.712 							"/>
							<polygon style="fill:#8B5743;" points="437.625,445.712 437.625,265.676 434.391,366.072 424.358,363.641 434.278,369.569 
								431.825,445.712 							"/>
						</g>
						<g>
							<path style="fill:#606418;" d="M437.625,287.574l-2.992-0.547l-4.015,28.652l6.065,9.607l-6.686-5.173l-5.294,37.779
								l5.978-2.822l-1.244,17.345l-5.966-5.736l-2.035,14.524l10.745,10.721l-11.337-6.498l-2.626,18.744
								c0,0,3.12,13.145,19.407,13.145c16.287,0,19.407-13.145,19.407-13.145l-2.854-20.371l-11.258,13.267l10.639-17.682
								l-1.289-9.197l-4.869,6.201l4.104-11.662l-4.034-28.789l-8.001,13.077l7.542-16.349l-2.678-19.114l-5.293-4.552h4.655
								l-1.971-14.067l-1.096-0.503l0.859-1.194l-3.862-27.56l-2.833,20.221l0,0L437.625,287.574z"/>
							<path style="fill:#7A7C23;" d="M434.633,287.027l-4.015,28.652l6.065,9.607l-6.686-5.173l-5.294,37.779l5.978-2.822
								l-1.244,17.345l-5.966-5.736l-2.035,14.524l10.745,10.721l-11.337-6.498l-2.626,18.744c0,0,3.12,13.145,19.407,13.145
								V287.574L434.633,287.027z"/>
							<g>
								<polygon style="fill:#83832C;" points="429.155,326.121 437.625,329.813 437.625,333.59 428.827,328.461 								"/>
								<polygon style="fill:#83832C;" points="427.252,339.704 437.625,346.044 437.625,350.223 427.001,341.497 								"/>
								<polygon style="fill:#83832C;" points="426.284,346.614 437.625,350.223 437.625,353.356 426.025,348.459 								"/>
								<polygon style="fill:#83832C;" points="431.102,312.229 437.625,318.215 437.625,297.431 433.226,297.069 432.313,302.788 
									436.898,305.038 432.14,304.817 437.005,309.216 431.541,309.094 								"/>
								<polygon style="fill:#83832C;" points="422.668,372.415 437.625,382.283 437.625,385.604 422.439,374.05 								"/>
								<polygon style="fill:#83832C;" points="420.351,388.95 437.625,401.675 437.625,406.603 419.947,391.831 								"/>
							</g>
							<g>
								<polygon style="fill:#70701E;" points="437.574,369.718 449.465,349.717 449.637,350.945 437.574,371.443 								"/>
								<polygon style="fill:#70701E;" points="437.574,371.443 450.376,356.216 451.358,363.224 437.574,379.831 								"/>
								<polygon style="fill:#70701E;" points="452.847,373.849 437.574,390.849 453.248,376.711 								"/>
								<polygon style="fill:#70701E;" points="444.472,316.876 437.625,324.751 437.625,331.179 445.411,321.24 440.059,324.911 
																	"/>
								<polygon style="fill:#70701E;" points="445.952,325.102 437.625,337.286 437.625,341.497 								"/>
							</g>
						</g>
					</g>
					<g>
						<g>
							<polygon style="fill:#7C4737;" points="400.542,282.22 406.205,276.738 400.464,279.781 398.403,215.801 393.953,353.933 
								380.149,350.589 393.798,358.745 390.423,463.508 398.403,463.508 406.383,463.508 							"/>
							<polygon style="fill:#8B5743;" points="398.403,463.508 398.403,215.801 393.953,353.933 380.149,350.589 393.798,358.745 
								390.423,463.508 							"/>
						</g>
						<g>
							<path style="fill:#606418;" d="M398.403,245.93l-4.116-0.752l-5.524,39.422l8.345,13.218l-9.2-7.118l-7.284,51.98
								l8.226-3.883l-1.712,23.865l-8.208-7.892l-2.8,19.984l14.784,14.751l-15.599-8.94l-3.614,25.789
								c0,0,4.293,18.086,26.701,18.086c22.409,0,26.701-18.086,26.701-18.086l-3.927-28.027l-15.489,18.254l14.638-24.328
								l-1.773-12.654l-6.699,8.532l5.646-16.045l-5.55-39.609l-11.008,17.992l10.377-22.494l-3.685-26.299l-7.282-6.264h6.404
								l-2.712-19.355l-1.509-0.693l1.181-1.643l-5.314-37.92l-3.899,27.822l0,0L398.403,245.93z"/>
							<path style="fill:#7A7C23;" d="M394.286,245.178l-5.524,39.422l8.345,13.218l-9.2-7.118l-7.284,51.98l8.226-3.883
								l-1.712,23.865l-8.208-7.892l-2.8,19.984l14.784,14.751l-15.599-8.94l-3.614,25.789c0,0,4.293,18.086,26.701,18.086V245.93
								L394.286,245.178z"/>
							<g>
								<polygon style="fill:#83832C;" points="386.749,298.965 398.403,304.045 398.403,309.241 386.298,302.185 								"/>
								<polygon style="fill:#83832C;" points="384.13,317.654 398.403,326.377 398.403,332.126 383.785,320.12 								"/>
								<polygon style="fill:#83832C;" points="382.798,327.161 398.403,332.126 398.403,336.438 382.443,329.7 								"/>
								<polygon style="fill:#83832C;" points="389.427,279.853 398.403,288.088 398.403,259.491 392.35,258.993 391.094,266.862 
									397.402,269.957 390.856,269.655 397.55,275.706 390.032,275.539 								"/>
								<polygon style="fill:#83832C;" points="377.824,362.661 398.403,376.238 398.403,380.807 377.509,364.91 								"/>
								<polygon style="fill:#83832C;" points="374.636,385.41 398.403,402.918 398.403,409.699 374.081,389.374 								"/>
							</g>
							<g>
								<polygon style="fill:#70701E;" points="398.332,358.949 414.693,331.431 414.93,333.12 398.332,361.323 								"/>
								<polygon style="fill:#70701E;" points="398.332,361.323 415.946,340.372 417.297,350.014 398.332,372.863 								"/>
								<polygon style="fill:#70701E;" points="419.346,364.634 398.332,388.023 419.898,368.571 								"/>
								<polygon style="fill:#70701E;" points="407.823,286.246 398.403,297.08 398.403,305.924 409.115,292.249 401.752,297.301 
																	"/>
								<polygon style="fill:#70701E;" points="409.86,297.564 398.403,314.327 398.403,320.12 								"/>
							</g>
						</g>
					</g>
					<g>
						<g>
							<polygon style="fill:#7C4737;" points="466.108,335.222 469.342,332.091 466.064,333.829 464.886,297.29 462.345,376.178 
								454.462,374.268 462.256,378.926 460.329,438.757 464.886,438.757 469.444,438.757 							"/>
							<polygon style="fill:#8B5743;" points="464.886,438.757 464.886,297.29 462.345,376.178 454.462,374.268 462.256,378.926 
								460.329,438.757 							"/>
						</g>
						<g>
							<path style="fill:#606418;" d="M464.886,314.497l-2.351-0.43l-3.155,22.514l4.766,7.549l-5.254-4.065l-4.16,29.686
								l4.698-2.217l-0.977,13.629l-4.688-4.507l-1.599,11.413l8.443,8.425l-8.909-5.106l-2.064,14.728
								c0,0,2.452,10.329,15.249,10.329s15.249-10.329,15.249-10.329l-2.243-16.006l-8.846,10.425l8.36-13.894l-1.013-7.227
								l-3.826,4.873l3.225-9.163l-3.17-22.621l-6.287,10.276l5.927-12.847l-2.105-15.019l-4.159-3.577h3.658l-1.549-11.053
								l-0.862-0.396l0.675-0.939l-3.035-21.656l-2.227,15.889l0,0L464.886,314.497z"/>
							<path style="fill:#7A7C23;" d="M462.535,314.067l-3.155,22.514l4.766,7.549l-5.254-4.065l-4.16,29.686l4.698-2.217
								l-0.977,13.629l-4.688-4.507l-1.599,11.413l8.443,8.425l-8.909-5.106l-2.064,14.728c0,0,2.452,10.329,15.249,10.329V314.497
								L462.535,314.067z"/>
							<g>
								<polygon style="fill:#83832C;" points="458.231,344.785 464.886,347.687 464.886,350.654 457.973,346.624 								"/>
								<polygon style="fill:#83832C;" points="456.735,355.458 464.886,360.441 464.886,363.724 456.538,356.867 								"/>
								<polygon style="fill:#83832C;" points="455.975,360.888 464.886,363.724 464.886,366.186 455.771,362.338 								"/>
								<polygon style="fill:#83832C;" points="459.761,333.87 464.886,338.574 464.886,322.242 461.43,321.957 460.712,326.451 
									464.315,328.219 460.577,328.046 464.399,331.502 460.106,331.406 								"/>
								<polygon style="fill:#83832C;" points="453.134,381.162 464.886,388.916 464.886,391.526 452.954,382.447 								"/>
								<polygon style="fill:#83832C;" points="451.313,394.155 464.886,404.154 464.886,408.026 450.996,396.418 								"/>
							</g>
							<g>
								<polygon style="fill:#70701E;" points="464.846,379.043 474.19,363.327 474.325,364.291 464.846,380.398 								"/>
								<polygon style="fill:#70701E;" points="464.846,380.398 474.906,368.433 475.677,373.94 464.846,386.989 								"/>
								<polygon style="fill:#70701E;" points="476.847,382.289 464.846,395.647 477.162,384.538 								"/>
								<polygon style="fill:#70701E;" points="470.267,337.521 464.886,343.709 464.886,348.76 471.004,340.95 466.799,343.835 
																	"/>
								<polygon style="fill:#70701E;" points="471.43,343.985 464.886,353.559 464.886,356.867 								"/>
							</g>
						</g>
					</g>
				</g>
				<g>
					<path style="fill:#172A0B;" d="M345.85,474.634c0,0,25.17-19.9,39.483-14.619c0,0,8.333-19.993,30-17.66
						c0,0,4.814-4.892,9.667,1.666c0,0,5.333-34.794,28-27.06c0,0,12.869-29.585,42.768-7.594c0,0,8.899-6.588,15.232,7.202
						c0,0,24.52-44.306,66.917-19.531c0,0,123.417-72.306,172.083,6.331v67.975L345.85,474.634z"/>
					
						<linearGradient id="SVGID_00000048491980085871750000000004098731816315580571_" gradientUnits="userSpaceOnUse" x1="547.9252" y1="474.6345" x2="547.9252" y2="366.6992">
						<stop  offset="0" style="stop-color:#F1F1CB;stop-opacity:0.3"/>
						<stop  offset="0.4973" style="stop-color:#20262E;stop-opacity:0"/>
					</linearGradient>
					<path style="fill:url(#SVGID_00000048491980085871750000000004098731816315580571_);" d="M345.85,474.634
						c0,0,25.17-19.9,39.483-14.619c0,0,8.333-19.993,30-17.66c0,0,4.814-4.892,9.667,1.666c0,0,5.333-34.794,28-27.06
						c0,0,12.869-29.585,42.768-7.594c0,0,8.899-6.588,15.232,7.202c0,0,24.52-44.306,66.917-19.531
						c0,0,123.417-72.306,172.083,6.331v67.975L345.85,474.634z"/>
				</g>
			</g>
			<g>
				<path style="fill:#2D6862;" d="M569.321,473.066H335.667v-21.75c0-8.959-3.43-17.117-9.05-23.233
					c-6.282-6.837-15.3-11.122-25.318-11.122H0V500h750L569.321,473.066z"/>
				<g style="opacity:0.65;">
					
						<linearGradient id="SVGID_00000077293425129525104830000011879899619484888728_" gradientUnits="userSpaceOnUse" x1="271.25" y1="473.0664" x2="271.25" y2="417.031">
						<stop  offset="0.8182" style="stop-color:#F1F1CB;stop-opacity:0.5"/>
						<stop  offset="0.9947" style="stop-color:#FFFFFF;stop-opacity:0.3"/>
					</linearGradient>
					<path style="fill:url(#SVGID_00000077293425129525104830000011879899619484888728_);" d="M273.25,417.031H245
						c19.5,0,25.25,24.241,25.25,24.241v31.794h10.526L287,448.763l0.5,24.303h10v-30.045
						C297.5,418.53,273.25,417.031,273.25,417.031z"/>
					
						<linearGradient id="SVGID_00000142869634494625658730000014141653223856336552_" gradientUnits="userSpaceOnUse" x1="232.75" y1="473.0664" x2="232.75" y2="417.031">
						<stop  offset="0.8182" style="stop-color:#F1F1CB;stop-opacity:0.5"/>
						<stop  offset="0.9947" style="stop-color:#FFFFFF;stop-opacity:0.3"/>
					</linearGradient>
					<path style="fill:url(#SVGID_00000142869634494625658730000014141653223856336552_);" d="M228,417.031h-18
						c16.25,0,28.75,23.741,28.75,23.741l13.75,32.294h3c0,0,0-9.803,0-31.295C255.5,420.28,228,417.031,228,417.031z"/>
					
						<linearGradient id="SVGID_00000139287087993013109940000003346063474525322672_" gradientUnits="userSpaceOnUse" x1="239.875" y1="473.0664" x2="239.875" y2="443.771">
						<stop  offset="0.8182" style="stop-color:#F1F1CB;stop-opacity:0.5"/>
						<stop  offset="0.9947" style="stop-color:#FFFFFF;stop-opacity:0.3"/>
					</linearGradient>
					<polygon style="fill:url(#SVGID_00000139287087993013109940000003346063474525322672_);" points="232.75,473.066 247,473.066 
						234.5,443.771 					"/>
					
						<linearGradient id="SVGID_00000134943475915595246460000011461414702945430952_" gradientUnits="userSpaceOnUse" x1="197" y1="473.0664" x2="197" y2="455.2667">
						<stop  offset="0.8182" style="stop-color:#F1F1CB;stop-opacity:0.5"/>
						<stop  offset="0.9947" style="stop-color:#FFFFFF;stop-opacity:0.3"/>
					</linearGradient>
					<polygon style="fill:url(#SVGID_00000134943475915595246460000011461414702945430952_);" points="191,473.066 203,473.066 
						200.333,455.267 					"/>
					
						<linearGradient id="SVGID_00000145043454081349556160000004136966592433783987_" gradientUnits="userSpaceOnUse" x1="196.2893" y1="473.0664" x2="196.2893" y2="417.031">
						<stop  offset="0.8182" style="stop-color:#F1F1CB;stop-opacity:0.5"/>
						<stop  offset="0.9947" style="stop-color:#FFFFFF;stop-opacity:0.3"/>
					</linearGradient>
					<path style="fill:url(#SVGID_00000145043454081349556160000004136966592433783987_);" d="M188.333,417.031h-5.87
						c0,0,24.203,2.056,24.203,28.018L203,473.066h7v-28.053C210,445.014,213,417.031,188.333,417.031z"/>
					
						<linearGradient id="SVGID_00000176002792385645754170000011682791760721137045_" gradientUnits="userSpaceOnUse" x1="147.0833" y1="473.0664" x2="147.0833" y2="417.031">
						<stop  offset="0.8182" style="stop-color:#F1F1CB;stop-opacity:0.5"/>
						<stop  offset="0.9947" style="stop-color:#FFFFFF;stop-opacity:0.3"/>
					</linearGradient>
					<path style="fill:url(#SVGID_00000176002792385645754170000011682791760721137045_);" d="M142.333,417.031h-18
						c16.25,0,28.75,23.741,28.75,23.741l13.75,32.294h3c0,0,0-9.803,0-31.295C169.833,420.28,142.333,417.031,142.333,417.031z"/>
					
						<linearGradient id="SVGID_00000047055553399678376100000001611871889123649925_" gradientUnits="userSpaceOnUse" x1="125.5972" y1="473.0664" x2="125.5972" y2="417.031">
						<stop  offset="0.8182" style="stop-color:#F1F1CB;stop-opacity:0.5"/>
						<stop  offset="0.9947" style="stop-color:#FFFFFF;stop-opacity:0.3"/>
					</linearGradient>
					<path style="fill:url(#SVGID_00000047055553399678376100000001611871889123649925_);" d="M117.641,417.031h-5.869
						c0,0,24.203,2.056,24.203,28.018l-3.667,28.018h7v-28.053C139.308,445.014,142.308,417.031,117.641,417.031z"/>
					
						<linearGradient id="SVGID_00000058562705256132666090000009557306921909455258_" gradientUnits="userSpaceOnUse" x1="171.9135" y1="466.6791" x2="171.9135" y2="417.031">
						<stop  offset="0.8182" style="stop-color:#F1F1CB;stop-opacity:0.5"/>
						<stop  offset="0.9947" style="stop-color:#FFFFFF;stop-opacity:0.3"/>
					</linearGradient>
					<path style="fill:url(#SVGID_00000058562705256132666090000009557306921909455258_);" d="M191.333,458.48v-23.288
						c0-16.159-18.333-18.162-18.333-18.162h-20.506c22.161,0,24.506,22.658,24.506,22.658v26.99L191.333,458.48z"/>
					
						<linearGradient id="SVGID_00000084491381384992557680000005743793851009565095_" gradientUnits="userSpaceOnUse" x1="108.7788" y1="466.6791" x2="108.7788" y2="417.031">
						<stop  offset="0.8182" style="stop-color:#F1F1CB;stop-opacity:0.5"/>
						<stop  offset="0.9947" style="stop-color:#FFFFFF;stop-opacity:0.3"/>
					</linearGradient>
					<path style="fill:url(#SVGID_00000084491381384992557680000005743793851009565095_);" d="M128.199,458.48v-23.288
						c0-16.159-18.333-18.162-18.333-18.162H89.359c22.16,0,24.506,22.658,24.506,22.658v26.99L128.199,458.48z"/>
				</g>
				
					<linearGradient id="SVGID_00000142888838433937946490000006376314382426826936_" gradientUnits="userSpaceOnUse" x1="167.8333" y1="473.0664" x2="167.8333" y2="416.9609">
					<stop  offset="0" style="stop-color:#F1F1CB;stop-opacity:0.7"/>
					<stop  offset="1" style="stop-color:#2D6862;stop-opacity:0"/>
				</linearGradient>
				<path style="fill:url(#SVGID_00000142888838433937946490000006376314382426826936_);" d="M335.667,451.316
					c0-8.959-3.43-17.117-9.05-23.233c-6.282-6.837-15.3-11.122-25.318-11.122H0v56.105h335.667V451.316z"/>
				<path style="fill:#004842;" d="M378.875,473.066c0,0,25.75,0.818,20,1.693c-5.75,0.875-27.125,0.375-12.75,1.125
					s28.674,2.499,13.587,3.374c-15.087,0.875,51.663,2.513,48.788,3.068s-7.5,1.43,17.125,2.18s75.75,0,59.25,1.375
					c-16.5,1.374-78.125,7.076-55.5,8.536C492,495.876,429.25,500,429.25,500H750v-35.987L378.875,473.066z"/>
				<g>
					<path style="fill:#3A7D76;" d="M390.71,493.675c0,1.837,11.971,3.326,26.738,3.326c14.372,0,26.092-1.411,26.708-3.18
						c4.891,0.669,11.947,1.09,19.792,1.09c14.767,0,26.738-1.489,26.738-3.326c0-1.837-11.971-3.326-26.738-3.326
						c-14.372,0-26.092,1.411-26.708,3.179c-4.891-0.669-11.947-1.09-19.792-1.09C402.681,490.349,390.71,491.838,390.71,493.675z"
						/>
					<path style="fill:#3A7D76;" d="M366.697,498.756c-8.431,0-15.946,0.486-20.847,1.244h41.694
						C382.644,499.242,375.129,498.756,366.697,498.756z"/>
					<path style="fill:#3A7D76;" d="M391.435,487.314c13.454-0.174,23.945-1.588,23.945-3.308c0-1.837-11.971-3.326-26.738-3.326
						c-10.626,0-19.803,0.771-24.115,1.888c-3.836-0.156-7.93-0.242-12.187-0.242c-21.605,0-39.119,2.179-39.119,4.866
						c0,1.271,3.924,2.428,10.344,3.295c-2.415-0.089-4.97-0.138-7.618-0.138c-14.767,0-26.738,1.489-26.738,3.326
						c0,1.837,11.971,3.326,26.738,3.326c14.767,0,26.738-1.489,26.738-3.326c0-0.745-1.967-1.432-5.29-1.986
						c4.606,0.237,9.651,0.369,14.946,0.369C373.617,492.058,390.914,489.945,391.435,487.314z"/>
					<ellipse style="fill:#3A7D76;" cx="310.888" cy="480.26" rx="30.113" ry="3.746"/>
				</g>
				<g>
					<path style="fill:#F1F1CB;" d="M373.75,479.168c0-1.744-11.305-3.159-25.25-3.159c-13.945,0-25.25,1.414-25.25,3.159
						c0,0.327,0.398,0.643,1.136,0.939c-34.848-1.081-53.994-2.405,11.281-7.041H90.771c0,0,143.729,4.287,105.729,8.863
						c-38,4.576-102.5,6.075,14,9.074c116.5,2.999,221-6.441,171.5-8.968c-4.795-0.245-10.029-0.46-15.48-0.656
						C370.99,480.809,373.75,480.029,373.75,479.168z"/>
					<path style="fill:#F1F1CB;" d="M319.934,494.416c-12.631,0.67-20.934,1.086-20.934,1.086
						C305.614,495.267,312.681,494.891,319.934,494.416z"/>
					<path style="fill:#F1F1CB;" d="M442.25,485.006c-21.5-2.249-34.75-4.192-60.25-2.971l1.23,0.066c0,0,37.77,0.155,28.27,2.405
						c-8.013,1.897-52.486,7.35-91.566,9.91C363.578,492.102,458.924,486.75,442.25,485.006z"/>
				</g>
				<g>
					<path style="fill:#FFFFFF;" d="M309.637,454.336c0,0.452-0.367,0.818-0.819,0.818c-0.452,0-0.819-0.366-0.819-0.818
						c0-0.452,0.366-0.818,0.819-0.818C309.271,453.517,309.637,453.884,309.637,454.336z"/>
					<path style="fill:#FFFFFF;" d="M304.333,459.598c0,0.322-0.261,0.583-0.583,0.583s-0.583-0.261-0.583-0.583
						c0-0.322,0.261-0.583,0.583-0.583S304.333,459.276,304.333,459.598z"/>
					<path style="fill:#FFFFFF;" d="M315.833,453.101c0,0.23-0.186,0.417-0.417,0.417c-0.23,0-0.417-0.186-0.417-0.417
						c0-0.23,0.186-0.417,0.417-0.417C315.647,452.684,315.833,452.871,315.833,453.101z"/>
					<circle style="fill:#FFFFFF;" cx="312.403" cy="462.652" r="1.515"/>
					<path style="fill:#FFFFFF;" d="M317.5,439.606c0,0.23-0.186,0.417-0.417,0.417c-0.23,0-0.417-0.186-0.417-0.417
						c0-0.23,0.186-0.417,0.417-0.417C317.314,439.189,317.5,439.376,317.5,439.606z"/>
					<path style="fill:#FFFFFF;" d="M321.167,464.783c0,0.34-0.276,0.616-0.616,0.616c-0.34,0-0.616-0.276-0.616-0.616
						c0-0.34,0.276-0.616,0.616-0.616C320.891,464.167,321.167,464.442,321.167,464.783z"/>
					<path style="fill:#FFFFFF;" d="M297.557,468.457c0,0.246-0.199,0.445-0.445,0.445c-0.246,0-0.445-0.199-0.445-0.445
						c0-0.246,0.199-0.445,0.445-0.445C297.358,468.012,297.557,468.211,297.557,468.457z"/>
					<path style="fill:#FFFFFF;" d="M280.776,443.588c0,0.101-0.248,0.183-0.555,0.183c-0.306,0-0.555-0.082-0.555-0.183
						c0-0.101,0.248-0.183,0.555-0.183C280.527,443.405,280.776,443.487,280.776,443.588z"/>
					<path style="fill:#FFFFFF;" d="M289.21,447.186c0,0.184,0,0.333,0,0.333S289.21,447.37,289.21,447.186s0-0.333,0-0.333
						S289.21,447.002,289.21,447.186z"/>
					<path style="fill:#FFFFFF;" d="M259.623,460.66c0,0.264-0.214,0.478-0.478,0.478c-0.264,0-0.478-0.214-0.478-0.478
						s0.214-0.478,0.478-0.478C259.409,460.182,259.623,460.396,259.623,460.66z"/>
					<path style="fill:#FFFFFF;" d="M275.781,466.039c0,0.354-0.287,0.64-0.641,0.64s-0.641-0.287-0.641-0.64
						c0-0.354,0.287-0.64,0.641-0.64S275.781,465.685,275.781,466.039z"/>
					<circle style="fill:#FFFFFF;" cx="108.223" cy="443.577" r="0.556"/>
					<circle style="fill:#FFFFFF;" cx="118.625" cy="455.725" r="0.458"/>
					<path style="fill:#FFFFFF;" d="M144.167,467.535c0,0.473-0.383,0.856-0.856,0.856c-0.473,0-0.856-0.383-0.856-0.856
						c0-0.473,0.383-0.856,0.856-0.856C143.783,466.679,144.167,467.062,144.167,467.535z"/>
					<path style="fill:#FFFFFF;" d="M153.665,440.107c0,0.367-0.298,0.665-0.665,0.665c-0.367,0-0.665-0.298-0.665-0.665
						c0-0.367,0.298-0.665,0.665-0.665C153.368,439.442,153.665,439.74,153.665,440.107z"/>
					<path style="fill:#FFFFFF;" d="M153.665,463.766c0,0.324-0.262,0.586-0.586,0.586c-0.324,0-0.586-0.262-0.586-0.586
						c0-0.323,0.262-0.586,0.586-0.586C153.403,463.18,153.665,463.443,153.665,463.766z"/>
					<path style="fill:#FFFFFF;" d="M157,469.057c0,0.368-0.299,0.666-0.667,0.666s-0.667-0.298-0.667-0.666
						c0-0.368,0.298-0.667,0.667-0.667S157,468.689,157,469.057z"/>
					<path style="fill:#FFFFFF;" d="M167.833,438.69c0,0.368-0.298,0.666-0.667,0.666c-0.368,0-0.667-0.298-0.667-0.666
						s0.298-0.666,0.667-0.666C167.535,438.023,167.833,438.322,167.833,438.69z"/>
					<circle style="fill:#FFFFFF;" cx="166.5" cy="453.851" r="0.667"/>
					<circle style="fill:#FFFFFF;" cx="173.5" cy="467.179" r="0.5"/>
					<path style="fill:#FFFFFF;" d="M188.083,439.731c0,0.575-0.466,1.041-1.042,1.041S186,440.306,186,439.731
						s0.466-1.041,1.042-1.041S188.083,439.156,188.083,439.731z"/>
					<path style="fill:#FFFFFF;" d="M189.833,464.266c0,0.276-0.224,0.5-0.5,0.5c-0.276,0-0.5-0.224-0.5-0.5
						c0-0.276,0.224-0.5,0.5-0.5C189.609,463.766,189.833,463.99,189.833,464.266z"/>
					<path style="fill:#FFFFFF;" d="M179,471.599c0,0.417-0.338,0.755-0.755,0.755c-0.417,0-0.755-0.338-0.755-0.755
						c0-0.417,0.338-0.755,0.755-0.755C178.662,470.844,179,471.182,179,471.599z"/>
					<circle style="fill:#FFFFFF;" cx="213.667" cy="435.691" r="0.5"/>
					<circle style="fill:#FFFFFF;" cx="204.25" cy="444.021" r="0.25"/>
					<circle style="fill:#FFFFFF;" cx="216.46" cy="462.973" r="0.793"/>
					<path style="fill:#FFFFFF;" d="M230.667,467.512c0,0.46-0.373,0.833-0.833,0.833c-0.46,0-0.833-0.373-0.833-0.833
						c0-0.46,0.373-0.833,0.833-0.833C230.294,466.679,230.667,467.052,230.667,467.512z"/>
					<path style="fill:#FFFFFF;" d="M241.708,437.107c0,0.506-0.41,0.916-0.917,0.916c-0.506,0-0.917-0.41-0.917-0.916
						c0-0.506,0.41-0.916,0.917-0.916C241.298,436.19,241.708,436.601,241.708,437.107z"/>
					<path style="fill:#FFFFFF;" d="M231.138,446.118c0,0.59-0.479,1.069-1.069,1.069c-0.59,0-1.069-0.479-1.069-1.069
						c0-0.59,0.479-1.069,1.069-1.069C230.66,445.049,231.138,445.527,231.138,446.118z"/>
					<path style="fill:#FFFFFF;" d="M247,468.836c0,1.191-0.966,2.156-2.157,2.156c-1.191,0-2.157-0.965-2.157-2.156
						s0.966-2.156,2.157-2.156C246.034,466.679,247,467.645,247,468.836z"/>
				</g>
			</g>
			<g>
				<path style="fill:#2D343F;" d="M365.51,473.782c0,0,26.327-5.588,47.75-4.805v8.253
					C413.26,477.23,353.993,475.838,365.51,473.782z"/>
				<g>
					<g>
						<path style="fill:#171D23;" d="M388.643,463.053c0,0,15.107,13.956,19.607,16.705c4.5,2.749,53.75-0.155,45.25,2.172
							c-8.5,2.327,54.25,2.671,47.75,0s50.25,0.926,37,1.876S750,500,750,500l-0.25-63.476l-273,5.748l-39.776-2.713l6.276,15.208
							L388.643,463.053z"/>
						<path d="M512.75,454.767l6.5-5.248l-6.375-7.872l-37,2.687l-12.125,9.934l16.309,5.006l3.779,24.494
							c2.774-0.038,5.423-0.103,7.795-0.197l-1.665-23.801L512.75,454.767z"/>
						<g>
							<polygon style="fill:#283138;" points="454.475,481.455 453.25,465.421 437.625,464.013 472.063,462.639 467.938,464.013 
								461.625,466.95 466.189,483.645 460.373,483.413 464.813,483.006 458.938,465.421 456.438,466.513 							"/>
							<path style="fill:#283138;" d="M434.875,479.758L440,460.14l-15.897-2.468l-35.46,5.381l17.112,14.918
								c0.995,0.772,1.855,1.395,2.495,1.786c1.159,0.708,5.292,1.041,10.638,1.185l-6.138-1.434l-8.75-9.871l7.125,6.373
								l0.125-7.747L411.135,465l13.24-2.361l0.125,13.876l6.742-1.505l2.133-13.12v19.129c4.191-0.028,8.286-0.073,11.737-0.077
								l1.138-0.262L434.875,479.758z"/>
							<polygon style="fill:#283138;" points="443.375,443.271 444.185,446.163 448.375,444.646 446.928,440.238 436.974,439.559 
								441.804,451.263 440.698,442.771 							"/>
							<path style="fill:#283138;" d="M489.75,465.421l3.578,5.001l5.797-0.536l1.75-5.873h25.875l-29.375-6.248l-10.594,2.864
								l4.851,22.94c2.473-0.099,4.64-0.229,6.327-0.392l-2.709-1.171L489.75,465.421z"/>
						</g>
					</g>
					<g>
						<path style="fill:#809232;" d="M543.5,434.525c0,0-124,2.999-104.5,5.498c19.5,2.499,25,3.999,25,3.999s-91,15.994-73,19.993
							c18,3.999,23.674-1.999,56.087,0c32.413,1.999,37.913-5.498,29.413-6.997c-8.5-1.5,15.5-7.089,35.5-7.043
							s-52.5,11.12-13.5,13.08c39,1.96,251.5,0.961,251.5,0.961v-31.68L543.5,434.525z"/>
						<path style="fill:#75812B;" d="M750,464.013v-31.68l-206.5,2.191c0,0-56.646,1.37-87.343,3.03
							c0.435-0.005,52.191-0.651,45.843,0.594c-6.375,1.25-37.75,3.749-28.875,4.748c8.875,1,33,1.466,9.125,5.981
							c-23.875,4.515-14.125,9.318-9.25,9.603c2.763,0.161,3.512,2.299,1.669,4.161c6.965-1.882,6.751-4.757,1.831-5.625
							c-6.376-1.125,5.535-4.551,20.327-6.174c3.687-0.765,8.268-1.49,13.798-1.965c17.25-1.483,31-0.608,19.25,4.89
							c-11.75,5.498,48.875,9.286,48.875,9.286l10.369,1.148C662.203,464.426,750,464.013,750,464.013z"/>
						<path style="fill:#99A243;" d="M419.898,462.639c-15.552,2.772-20.398,0.375-14.731-1.125c0,0,15.833,1.762,20.833-3.034
							c5-4.797-1.405-4.463-8.703-3.214c-7.297,1.25,44.369-9.26,49.869-10.253c4.889-0.883-2.485-5.396-8.743-5.594
							c7.35-0.858,25.745-3.121,35.741-3.447l-0.004,0c-32.075,1.098-66.069,2.653-55.161,4.05c19.5,2.499,25,3.999,25,3.999
							s-91,15.994-73,19.993c18,3.999,23.674-1.999,56.087,0c4.399,0.271,8.286,0.363,11.726,0.323
							C458.38,464.254,435.304,459.893,419.898,462.639z"/>
					</g>
				</g>
				<g>
					<g>
						<polygon style="fill:#20262E;" points="495.768,380.045 566.5,500 750,500 750,337.067 644.983,352.283 640.5,368.049 						
							"/>
						<g>
							<polygon style="fill:#2D343F;" points="531.134,390.041 526.962,391.605 556.727,478.98 543,416.961 577.917,416.979 
								554.5,390.541 623.75,385.043 495.768,380.045 566.5,500 517.712,395.071 							"/>
							<path style="fill:#2D343F;" d="M668.25,444.021l-21.75-3.999l1.25-44.951l6.665,0.967l-5.915,35.237l15.25-34.987
								l12.999-2.225c0,0-32.588-6.457-36.169-4.615l4.17,53.323L668.25,444.021z"/>
							<polygon style="fill:#2D343F;" points="579.25,442.522 577.917,419.655 543.5,418.534 569,422.35 575.05,443.271 
								570.391,446.133 636.71,441.022 							"/>
							<polygon style="fill:#2D343F;" points="595.351,450.405 570.391,446.133 589.333,500 577.917,452.018 							"/>
							<polygon style="fill:#2D343F;" points="654.565,465.393 658.667,500 660.196,473.066 687.667,473.066 							"/>
							<polygon style="fill:#2D343F;" points="590.707,480.68 594.189,488.037 604.138,492.63 587.58,492.63 584.737,480.68 
								589.333,500 650.333,496.668 644.667,492.63 							"/>
						</g>
						<g>
							<path style="fill:#12171C;" d="M517.712,417.26l114.675,5.089l4.323,18.672l-62.995,4.924c0,0,81.284,1.074,92.784-1.925
								l-21.75-1.25l-4.17-53.323l17.92-6.19c0,0-69-9.782-104,0c0,0,57.5-0.714,69.25,1.785l7.754,33.491
								C614.341,416.038,517.712,417.26,517.712,417.26z"/>
							<path style="fill:#12171C;" d="M671,461.015c-7-4.332-75.649-10.609-75.649-10.609s42.316,11.276,47.167,14.988
								c4.852,3.712,7.815,31.275,7.815,31.275L614.375,500h44.292l-4.102-34.607C654.565,465.393,678,465.346,671,461.015z"/>
							<path style="fill:#12171C;" d="M581,494.002c1.667,5.331-14.5,5.998-14.5,5.998h22.833l-18.942-53.867
								C570.391,446.133,579.333,488.671,581,494.002z"/>
						</g>
					</g>
					<g>
						<g>
							<path style="fill:#62722A;" d="M750,337.067c0,0-120.5,14.909-103.5,15.701c17,0.793-141,15.787-150,25.284
								c-9,9.496,67.095,2.999,110.298,3.499c43.202,0.5,51.702,1.708,51.702,1.708s-36,6.289-6,9.288
								c30,2.999,97.5,2.493,97.5,2.493V337.067z"/>
							<path style="fill:#62722A;" d="M750,451.018c0,0-106,1.999-83.5-6.997c0,0-118,0.189-92.5,3.593
								c25.5,3.404,119.391,14.9,86.196,16.399C627,465.513,750,484.006,750,484.006V451.018z"/>
						</g>
						<g>
							<path style="fill:#809232;" d="M660.196,387.709c4.897-0.442,13.651-1.469,23.17-2.753c0.336,0.975,6.749,1.753,14.635,1.753
								c8.1,0,14.667-0.821,14.667-1.833c0-1.012-6.567-1.833-14.667-1.833c-0.44,0-0.874,0.004-1.305,0.008
								c22.117-3.352,40.721-7.264,17.638-7.672c-37.667-0.666-150,1-128.167-0.666c21.833-1.666,31.869-5.992,9.184-5.995
								c-22.684-0.003,38.649-10.858,62.316-14.261C681.333,351.056,750,337.067,750,337.067s-120.5,14.909-103.5,15.701
								c17,0.793-141,15.787-150,25.283c-9,9.497,67.095,2.999,110.298,3.499c43.202,0.5,51.702,1.708,51.702,1.708
								s-36,6.289-6,9.288c24.375,2.437,73.505,2.559,91.072,2.52C740.209,394.877,642.04,389.346,660.196,387.709z"/>
							<path style="fill:#809232;" d="M672.305,464.013c13.289,0.316,12.77-6.842-20.047-10.713
								c2.535-0.526,4.195-1.393,4.195-2.375c0-1.605-4.42-2.906-9.872-2.906c-5.452,0-9.872,1.301-9.872,2.906
								c0,0.217,0.087,0.427,0.24,0.631c-23.052-3.456,2.047-7.379,2.05-7.379c0,0-0.001,0-0.002,0l-31.664,0.428
								c-24.869,0.488-45.539,1.381-33.334,3.01c25.5,3.404,119.391,14.9,86.196,16.399c-26.299,1.188,45.435,13.041,76.378,17.916
								l0,0C736.574,481.929,658.277,463.68,672.305,464.013z"/>
							<ellipse style="fill:#809232;" cx="625.638" cy="372.88" rx="13.362" ry="2.492"/>
						</g>
						<g>
							<path style="fill:#546023;" d="M750,340.211c0,0-119.768,18.691-78.884,23.264c40.884,4.574,86.055,2.363,70.72,4.968
								C726.5,371.048,712,372.607,729,373.827c17,1.22,21,2.502,21,2.502s-52.751,9.677-36.625,11.695S750,391.888,750,391.888
								V340.211z"/>
							<path style="fill:#546023;" d="M666.5,444.021c0,0-8.277,0.013-19.971,0.096L646,445.014l14.196,1.119
								c0,0-10.585,4.386,12.11,6.885C695,455.517,750.5,455.447,731,458.48c-19.5,3.034-51.86,4.741-20,14.586
								c31.86,9.845,39,10.94,39,10.94v-32.988C750,451.018,644,453.018,666.5,444.021z"/>
						</g>
					</g>
				</g>
			</g>
			<g>
				<g>
					<g>
						<polygon style="fill:#6C2F2D;" points="17.651,299.488 17.048,375.778 0,368.623 0,382.323 0,383.743 13.719,395.357 
							12.449,500 20.667,500 30.106,500 20.667,44.742 17.048,280.796 0,278.134 0,288.358 						"/>
						<path style="fill:#2F3B0F;" d="M17.048,239.796L0,240.888v35.894l20.667,14.264L0,289.755v58.217l6.19,1.565l4.825,38.885
							L0,382.323v102.898c0.223,0.087,0.443,0.167,0.658,0.237c0.849,0.226,1.31,0.341,1.31,0.341
							c-0.418-0.072-0.859-0.194-1.31-0.341c-0.195-0.052-0.422-0.113-0.658-0.177V500h107.018l8.649-3.047l-8.407-40.02
							l-60.053-23.591l56.242,5.449l-18.927-90.094c-13.264,6.242-32.696,15.082-33.093,13.497
							c-0.407-1.625,17.81-18.581,29.737-29.47L44.393,157.684l-15.282,19.405l12.305-33.577l-20.749-98.77L6.771,110.886
							l13.896,42.084L2.351,131.929L0,143.118v90.677L17.048,239.796z"/>
						<path style="fill:#3B4715;" d="M115.667,496.953l-8.407-40.02l-60.053-23.591l56.242,5.449l-18.927-90.094
							c-13.264,6.242-32.696,15.082-33.093,13.497c-0.407-1.625,17.81-18.581,29.737-29.47L44.393,157.684l-15.282,19.405
							l12.305-33.577l-20.749-98.77v108.229v138.075V500h86.351L115.667,496.953z"/>
						<g>
							<polygon style="fill:#454F1C;" points="76.322,309.67 20.667,338.061 20.667,325.732 74.911,302.952 							"/>
							<polygon style="fill:#454F1C;" points="73.26,295.092 20.667,325.732 20.667,297.076 66.662,263.686 25.965,300.299 
								70.572,282.295 							"/>
							<polygon style="fill:#454F1C;" points="78.873,321.812 21.39,358.957 21.39,373.827 							"/>
							<polygon style="fill:#454F1C;" points="48.495,177.206 20.667,202.186 20.667,245.178 58.353,224.134 53.742,202.186 
								27,218.605 52.248,195.072 							"/>
							<polygon style="fill:#454F1C;" points="59.48,229.5 20.667,250.346 20.667,263.686 60.424,233.989 							"/>
							<polygon style="fill:#454F1C;" points="36.909,122.055 20.667,172.123 20.667,160.127 35.639,116.009 							"/>
							<polygon style="fill:#454F1C;" points="88.523,367.746 20.667,393.704 20.667,405.791 89.8,373.827 							"/>
							<polygon style="fill:#454F1C;" points="20.667,405.791 91.294,380.936 95.118,399.138 20.667,427.527 							"/>
							<polygon style="fill:#454F1C;" points="108.779,464.167 20.667,445.049 20.667,462.014 108.779,468.902 							"/>
						</g>
					</g>
					<polygon style="fill:#20262E;" points="0,410.534 35,421.529 17.5,482.507 35,440.022 57.833,443.521 34,487.483 
						62.584,458.48 94,465.421 68.167,492.003 115.667,468.262 142,471.511 109.887,493.025 145,477.508 152.494,487.671 
						133.5,493.025 175.5,497.001 167.5,487.294 182.464,479.508 208.5,494.502 206.5,482.007 235,487.294 241,497.001 241,484.506 
						272.5,487.671 299,500 0,500 					"/>
				</g>
				<g>
					<g>
						<path style="fill:#714E3D;" d="M750,150.297L709.396,0h-32.667l9.524,32.892l0,0L673,30.357c0,0,3-1.181,3.749-4.679
							c0.191-0.892-3.566-2.238-9.264-3.749l0.002,0l-4.209-8.414L639.688,0h-62.75L637,3.519l14.86,9.996l7.208,6.362l0,0
							c-17.451-3.979-41.534-8.195-41.534-8.195l-10.314-4.998l10.314,7.497C637.57,15.681,668,28.676,663.5,30.357
							s-5,5.317-5,5.317L691,49.227l1.039,3.574l0,0c0,0-8.742-0.872-5.539,5.364c3.203,6.236-0.478,24.848,4.5,30.989
							c4.977,6.141,13.258,5.697,16.153,15.658L750,252.255V150.297z"/>
						<polygon style="fill:#5E3E31;" points="690.938,0 750,206.064 750,150.297 709.396,0 						"/>
						<polygon style="fill:#51342A;" points="700.875,0 750,184.08 750,150.297 709.396,0 						"/>
					</g>
					<g>
						<polygon style="fill:#5E3E31;" points="722.458,0 750,145.555 750,50.668 750,0 						"/>
						<polygon style="fill:#51342A;" points="736.146,0 750,105.936 750,0 						"/>
					</g>
				</g>
			</g>
			<g>
				<path style="fill:#555E21;" d="M245.277,144.454c0,0,2.036,0.666,2.869,2.999c0,0,1-2.333,3.833-2.999
					c0,0-3.25-0.666-3.75,1.499C248.229,145.954,246.657,143.038,245.277,144.454z"/>
				<path style="fill:#555E21;" d="M437.574,149.929c0,0,2.036,0.666,2.869,2.999c0,0,1-2.333,3.833-2.999
					c0,0-3.25-0.666-3.75,1.499C440.527,151.428,438.954,148.513,437.574,149.929z"/>
				<path style="fill:#555E21;" d="M328.036,226.102c0,0,2.036,0.667,2.869,2.999c0,0,1-2.332,3.833-2.999
					c0,0-3.25-0.666-3.75,1.499C330.989,227.602,329.416,224.686,328.036,226.102z"/>
				<path style="fill:#555E21;" d="M316.167,94.987c0,0,1.129,0.369,1.591,1.662c0,0,0.554-1.293,2.125-1.662
					c0,0-1.802-0.369-2.079,0.831C317.804,95.818,316.933,94.202,316.167,94.987z"/>
				<path style="fill:#555E21;" d="M165.976,193.594c0,0,1.129,0.369,1.591,1.662c0,0,0.554-1.293,2.125-1.662
					c0,0-1.801-0.369-2.079,0.831C167.612,194.425,166.741,192.809,165.976,193.594z"/>
				<path style="fill:#555E21;" d="M364.659,53.336c0,0,1.129,0.369,1.591,1.662c0,0,0.554-1.293,2.125-1.662
					c0,0-1.801-0.369-2.079,0.831C366.296,54.167,365.424,52.551,364.659,53.336z"/>
				<path style="fill:#555E21;" d="M418.218,122.643c0,0,1.129,0.369,1.591,1.662c0,0,0.554-1.293,2.125-1.662
					c0,0-1.802-0.369-2.079,0.831C419.855,123.474,418.983,121.858,418.218,122.643z"/>
				<path style="fill:#555E21;" d="M366.517,135.179c0,0,2.036,0.666,2.87,2.999c0,0,1-2.332,3.833-2.999c0,0-3.25-0.666-3.75,1.499
					C369.47,136.678,367.897,133.763,366.517,135.179z"/>
			</g>
			<g>
				<g>
					<path style="opacity:0.55;fill:#14161E;" d="M731.641,380.045L618.14,367.616c-5.976-1.245-15.86-2.059-27.05-2.059
						c-18.246,0-33.037,2.163-33.037,4.832c0,2.27,10.706,4.174,25.135,4.692l-0.759,0.292L731.641,380.045z"/>
					<g>
						<g>
							<path style="fill:#A04D4D;" d="M589.827,189.684c0,0,4.6-2.314,7.643,1.614c3.042,3.928,4.944,10.897,4.563,13.432
								c-0.38,2.534-6.079,4.942-6.079,4.942l-18.692-1.901l1.574-14.572L589.827,189.684z"/>
							<path style="fill:#8D4242;" d="M589.827,189.684l-10.991,3.515l-1.574,14.572l18.692,1.901c0,0,3.953-1.675,5.49-3.701
								c-2.152,1.221-3.28-0.11-4.735-4.409c-1.458-4.308-5.387-4.688-4.627-8.11c0.746-3.355,4.468-2.996,4.613-2.981
								C593.706,187.745,589.827,189.684,589.827,189.684z"/>
						</g>
						<g>
							<path style="fill:#34375A;" d="M598.542,268.266c0,0,0.513,5.333-2.181,13.886s-4.912,24.709-4.278,28.321
								c0.634,3.611,7.419,27.94,6.498,32.502h1.741l-1.711,7.223c0,0-3.803,2.661-9.887,0c0,0-1.521,1.141-3.993,0
								c0,0-20.726-32.882-21.106-38.204c-0.38-5.322,2.662-43.727,2.662-43.727H598.542z"/>
							<g>
								<path style="fill:#262944;" d="M572.657,271.963c0,0-0.38,17.506,0.412,23.683c0.792,6.177,5.768,18.722,8.048,24.899
									c2.281,6.177,5.99,22.618,5.99,22.618l1.616,7.033c0,0-0.285-2.756-0.335-6.462c-0.05-3.706-3.087-14.54-5.179-21.763
									c-2.092-7.223-6.845-16.346-8.651-26.42c-1.806-10.074-0.729-25.147-0.729-25.147l-7.589-1.551L572.657,271.963z"/>
								<path style="fill:#262944;" d="M598.542,268.266h-24.734l0.022,2.138c0,0,10.426,1.769,13.944,3.669
									c3.518,1.901,7.606-1.616,7.606,1.996c0,3.611-3.775,23.352-3.076,27.452l0,0.001c0.663-6.497,2.253-15.639,4.058-21.371
									C599.055,273.598,598.542,268.266,598.542,268.266z"/>
							</g>
							<g>
								<path style="fill:#426683;" d="M587.203,344.59l-5.609,1.996l3.137,3.611c0,0,1.901,1.521,3.993,0L587.203,344.59z"/>
								<polygon style="fill:#597D9F;" points="600.322,342.974 586.194,343.449 588.724,350.197 598.611,350.197 								"/>
							</g>
							<path style="fill:#95B8D5;" d="M588.299,318.283c-1.335-5.741-2.489-10.698-2.952-13.543
								c-1.358-8.331,2.574-32.503,2.615-32.746l-0.376-0.062c-0.039,0.244-3.982,24.477-2.614,32.868
								c0.466,2.859,1.621,7.821,2.958,13.569c2.629,11.299,5.9,25.361,5.9,31.828h0.38
								C594.209,343.687,590.932,329.601,588.299,318.283z"/>
						</g>
						<g>
							<path style="fill:#EC5840;" d="M574.463,197l-2.789,1.901c0,0-7.732,14.445-7.479,16.6c0.254,2.154,0.38,9.123-0.634,15.206
								c-1.014,6.082-2.155,10.264-2.155,10.264s-1.394,0-1.901,2.154c-0.507,2.154-0.634,6.716,0.634,7.223l-0.996,6.843
								c0,0,3.658,2.914,4.419,6.082c0.76,3.168,1.521,5.322,1.521,5.322s18.634,4.308,24.845,3.548
								c6.211-0.76,10.141-5.322,10.141-5.322l-4.183-18.5c0,0,8.747-4.562,9.761-7.223c1.014-2.661-9.634-39.028-9.634-39.028
								s-6.085-5.829-9.507-5.069c-3.423,0.76-8.672,4.182-8.672,4.182L574.463,197z"/>
							<g>
								<path style="fill:#D24233;" d="M573.704,201.474c0,0,0.355,13.794,5.691,15.904l-7.214,24.003v3.801l18.064-8.933
									l-5.799-13.4c0,0,6.148-0.704,5.166-6.957c0,0-4.88,5.436-6.116,1.255c-1.236-4.182-1.066-11.214-1.066-11.214
									s1.238-0.894,0.439-3.536c0,0-1.723-2.392,1.161-4.559c-3.021,1.278-6.196,3.343-6.196,3.343l-3.37-4.182l-1.86,1.268
									C572.603,198.267,572.47,200.247,573.704,201.474z"/>
								<path style="fill:#D24233;" d="M577.262,253.641l4.695,5.417c0,0,9.653,4.776,17.557,5.31l-3.629-16.049L577.262,253.641z"
									/>
							</g>
							<g>
								<path style="fill:#B6392C;" d="M572.181,245.183l18.064-8.933c0,0,4.468-0.57,6.465,1.331c0,0-3.518-2.471-6.18-2.376
									l-11.694-16.726l-6.655,22.904l7.32-18.627l7.701,11.827l-7.225-5.365l6.18,6.843L572.181,245.183z"/>
								<path style="fill:#B6392C;" d="M595.886,248.319l-17.43,6.336l1.046,0.697l4.944-0.697l-4.563,1.457l2.075,2.946
									c0,0-10.061-3.231-9.776-13.875c0,0,1.456,6.943,5.081,8.458L595.886,248.319z"/>
								<polygon style="fill:#B6392C;" points="560.761,241.171 560.139,250.346 561.407,240.969 								"/>
								<path style="fill:#B6392C;" d="M572.657,266.185c0,0,12.709,6.19,18.476,5.757c0,0-14.969-4.805-13.871-6.516
									C578.361,263.715,574.368,263.523,572.657,266.185z"/>
							</g>
							<path style="fill:#F8BAB3;" d="M572.657,199.339c0,0-8.933,31.874-13.514,57.85c0,0,13.672-57.031,14.687-57.85H572.657z"/>
						</g>
						<path style="fill:#E1B6AF;" d="M567.713,177.453l-0.539,1.946l-2.472,4.467l0.475,1.331c0,0,0.856,6.184,1.711,6.703
							c0.856,0.519,1.68-0.241,4.025,0.71c2.345,0.95,3.296,5.606,3.296,5.606l9.697-4.751V183.39l-13.69-8.363L567.713,177.453z"/>
						<g>
							<path style="fill:#F8F7FF;" d="M566.963,175.815c0,0-2.261,2.539-2.261,5.485c0,0,1.441-3.723,3.43-3.952l5.039,6.607v5.613
								c0,0-1.909,9.313,0.563,11.309c0,0-1.056,16.346,4.606,16.631c0,0-4.606-1.14-2.799-8.553c0,0,3.803,12.545,9.412,12.64
								c5.609,0.095,4.659-5.702,4.659-5.702s-2.377,6.843-5.894,2.661c-3.518-4.182-2.567-12.545-2.567-12.545
								s1.82-1.045,1.718-3.611c0,0-2.003,2.851-2.764,1.521c-0.761-1.331,1.046-9.314,1.521-7.983
								c0.475,1.33,5.704-0.206,6.18-4.569C588.28,187.002,570.27,170.71,566.963,175.815z"/>
							<g>
								<path style="fill:#D7D5E9;" d="M587.805,191.366c0.333-3.054-8.385-11.942-14.784-15.258l-0.84,2.075l0.99,5.772l2.29,3.636
									C575.461,187.591,583.368,194.142,587.805,191.366z"/>
								<path style="fill:#D7D5E9;" d="M581.15,206.009c0,0-4.643,0.685-5.451-8.059C575.699,197.95,574.907,206.845,581.15,206.009
									z"/>
								<path style="fill:#D7D5E9;" d="M573.734,200.877c0,0,1.182,0.831,2.096,0.211
									C575.83,201.088,574.812,202.663,573.734,200.877z"/>
								<path style="fill:#D7D5E9;" d="M573.829,190.347c0,0-1.878,8.044,0.475,10.026
									C574.305,200.374,572.782,195.923,573.829,190.347z"/>
							</g>
						</g>
						<g>
							<g>
								<path style="fill:#37375B;" d="M570.914,168.945c0,0,11.768-7.698,20.176-1.045c8.408,6.652-0.021,18.532-0.021,18.532
									S578.076,187.287,570.914,168.945z"/>
								<path style="fill:#2A2A49;" d="M591.069,186.432c0,0,8.43-11.88,0.021-18.532c-1.052-0.833-2.158-1.44-3.286-1.867
									c0,0.002-1.362,4.294,3.898,6.067c0,0,0.697,7.159-2.662,11.911c0,0-10.585-4.664-18.127-15.066
									C578.076,187.287,591.069,186.432,591.069,186.432z"/>
							</g>
							<g>
								<path style="fill:#EC5840;" d="M565.59,174.014l9.761,12.798c0,0,7.859,5.449,10.901,5.069
									c3.042-0.38,5.07-4.182,4.817-5.449c0,0-8.493-1.901-10.395-4.815c-1.901-2.914-9.761-12.671-9.761-12.671
									S566.604,169.199,565.59,174.014z"/>
								<path style="fill:#D74435;" d="M586.252,191.88c3.042-0.38,5.07-4.182,4.817-5.449c0,0-8.493-1.901-10.394-4.815
									c-1.018-1.56-3.743-5.081-6.056-8.017h0c0,0,4.789,7.561,5.042,8.765c0.254,1.204-3.169,3.675-3.169,3.675l-4.31-3.383l0,0
									l3.169,4.155C575.35,186.812,583.21,192.26,586.252,191.88z"/>
							</g>
							<g>
								<path style="fill:#EC5840;" d="M596.361,166.949c0,2.362-1.915,4.277-4.278,4.277c-2.363,0-4.278-1.915-4.278-4.277
									c0-2.362,1.915-4.277,4.278-4.277C594.446,162.673,596.361,164.587,596.361,166.949z"/>
								<path style="fill:#D74435;" d="M592.083,171.226c2.363,0,4.278-1.915,4.278-4.277c0-1.32-0.599-2.5-1.539-3.284l0,0
									c0,0-1.702,7.456-6.053,5.988C589.553,170.613,590.746,171.226,592.083,171.226z"/>
							</g>
						</g>
						<g>
							<g>
								<path style="fill:#833939;" d="M584.731,350.197c0,0-2.454,7.015-3.549,8.87c-1.095,1.855-8.113,4.942-8.113,4.942v4.942
									l29.916-0.507l3.042-2.154l-7.416-16.093C598.611,350.197,586.379,347.663,584.731,350.197z"/>
								<path style="fill:#722D2D;" d="M601.208,355.833c0,0-3.738,3.011,1.776,12.61l3.042-2.154L601.208,355.833z"/>
							</g>
							<g>
								<path style="fill:#34375A;" d="M567.863,368.783c0,0-0.942,0.864,0.516,1.371c1.458,0.507,6.909,2.788,10.014,2.914
									c3.106,0.127,8.683,0,8.683,0v-0.697l5.641-0.127v1.204l10.711-0.57l-0.444-2.534L567.863,368.783z"/>
								<path style="fill:#D74435;" d="M588.724,350.197l-0.444,4.562c0,0-8.937,7.286-10.331,7.223c0,0-6.845-1.774-9.063,0.887
									c-2.218,2.661-1.711,5.639-1.711,5.639s8.683,3.675,15.148,3.294c6.465-0.38,20.662-1.457,20.662-1.457v-3.928
									l-4.373-16.219H588.724z"/>
								<g>
									<path style="fill:#DF736E;" d="M600.987,359.01c0,0-5.708,1.112-5.326,11.877l7.322-0.543v-3.928L600.987,359.01z"/>
									<polygon style="fill:#A94944;" points="588.724,350.197 599.314,351.722 598.611,350.197 									"/>
								</g>
							</g>
						</g>
					</g>
				</g>
				<g>
					<polygon style="opacity:0.55;fill:#14161E;" points="682.892,355.694 726.667,360.638 731.641,365.556 750,368.783 
						750,355.694 					"/>
					<g>
						<polygon style="fill:#384151;" points="682.892,355.694 750,355.694 750,189.015 						"/>
						<g>
							<polygon style="fill:#DF6042;" points="750,189.015 682.892,355.694 726.667,360.638 731.641,365.556 							"/>
							<polygon style="fill:#DF6042;" points="750,189.015 746,364.634 750,363.777 							"/>
							<polygon style="fill:#E47A65;" points="726.667,360.638 750,189.015 731.641,365.556 							"/>
							<polygon style="fill:#EEB28A;" points="691.069,356.618 750,189.015 682.892,355.694 							"/>
						</g>
					</g>
				</g>
			</g>
		</g>
	</g>
</g>
</svg>
